PathFileType	4	(X/Y/Z)	C:/Users/opensim2020/Desktop/walking_exp_matlab/subject02_walking05_straight_02.trc																																																																																																																												
DataRate	CameraRate	NumFrames	NumMarkers	Units	OrigDataRate	OrigDataStartFrame	OrigNumFrames																																																																																																																								
100	100	5	42	mm	100	1426	243																																																																																																																								
Frame#	Time	LFHD			RFHD			LBHD			RBHD			C7			T10			CLAV			STRN			RBAK			LSHO			LUPA			LELB			LFRM			LWRA			LWRB			LFIN			RSHO			RUPA			RELB			RFRM			RWRA			RWRB			RFIN			LASI			RASI			LPSI			RPSI			LTHI			LKNE			LTIB			LANK			LHEE			LTOE			RTHI			RKNE			RTIB			RANK			RHEE			RTOE			*39			*40			*41		
		X1	Y1	Z1	X2	Y2	Z2	X3	Y3	Z3	X4	Y4	Z4	X5	Y5	Z5	X6	Y6	Z6	X7	Y7	Z7	X8	Y8	Z8	X9	Y9	Z9	X10	Y10	Z10	X11	Y11	Z11	X12	Y12	Z12	X13	Y13	Z13	X14	Y14	Z14	X15	Y15	Z15	X16	Y16	Z16	X17	Y17	Z17	X18	Y18	Z18	X19	Y19	Z19	X20	Y20	Z20	X21	Y21	Z21	X22	Y22	Z22	X23	Y23	Z23	X24	Y24	Z24	X25	Y25	Z25	X26	Y26	Z26	X27	Y27	Z27	X28	Y28	Z28	X29	Y29	Z29	X30	Y30	Z30	X31	Y31	Z31	X32	Y32	Z32	X33	Y33	Z33	X34	Y34	Z34	X35	Y35	Z35	X36	Y36	Z36	X37	Y37	Z37	X38	Y38	Z38	X39	Y39	Z39	X40	Y40	Z40	X41	Y41	Z41	X42	Y42	Z42
																																																																																																																															
61	0.6	-627.58618	1772.37549	-1449.57263	-637.25012	1746.90564	-1308.34595	-734.01471	1668.21924	-1473.29321	-754.8526	1639.58728	-1334.40491	-774.09161	1536.13269	-1395.9314	-825.48669	1262.56555	-1388.92371	-634.22699	1470.47827	-1417.79993	-582.61591	1296.90442	-1407.68396	-823.66553	1366.22839	-1324.62585	-718.7561	1509.73779	-1580.85767	-766.97571	1315.35608	-1658.28711	-792.08539	1176.65491	-1668.78223	-803.12103	1046.02527	-1688.73145	-757.41705	912.82855	-1675.52307	-808.55695	922.71875	-1698.24805	-798.59705	856.19525	-1705.52917	-676.73224	1508.09265	-1217.8053	-676.53064	1316.45532	-1127.29626	-644.12048	1173.23804	-1108.47546	-593.19696	1064.11682	-1093.54346	-523.0296	950.20593	-1115.32959	-565.78717	937.19055	-1080.43274	-516.19177	883.72449	-1080.89636	-594.35297	1002.23438	-1522.48511	-601.25757	986.35315	-1267.61853	-805.40161	1046.39978	-1449.24536	-812.29962	1046.24731	-1334.1394	-601.25269	699.10913	-1600.2981	-576.43323	508.75018	-1579.97852	-673.28625	345.94635	-1569.43542	-722.8703	129.373	-1541.35901	-749.08405	108.02155	-1481.91101	-595.68231	52.77219	-1586.09326	-687.73108	677.86493	-1219.20166	-698.80042	469.59344	-1270.573	-746.68585	286.8002	-1271.11975	-768.64801	95.60794	-1317.2865	-804.60907	42.79064	-1373.60608	-616.33972	39.49974	-1306.53455	-750.32489	1806.64063	-1368.65405	-2845.15845	1033.8822	3360.146	NaN	NaN	NaN
62	0.61	-617.98035	1771.86963	-1449.44946	-627.89667	1746.96997	-1308.34387	-724.99762	1668.23364	-1473.06445	-745.9967	1640.0791	-1334.09766	-765.46924	1536.20642	-1395.57617	-817.3894	1262.74658	-1389.22998	-625.67523	1470.34424	-1417.04578	-574.14661	1296.65942	-1406.20923	-815.16925	1366.32971	-1324.06799	-709.97906	1509.52759	-1580.31909	-760.53528	1315.47681	-1657.01135	-786.93781	1177.08337	-1666.99097	-799.95062	1046.64844	-1686.74353	-756.09454	912.57098	-1673.21033	-807.2804	923.3941	-1695.96887	-798.30078	856.71802	-1703.24524	-668.57428	1508.52112	-1217.22998	-667.3855	1316.8009	-1126.85693	-632.79736	1173.81262	-1108.13928	-580.62915	1065.13489	-1093.82715	-509.50992	951.96381	-1116.54236	-551.84064	938.52179	-1081.0647	-501.7728	885.31165	-1082.52063	-585.26019	1001.82343	-1521.3894	-595.0459	985.43683	-1266.40039	-797.73853	1047.05994	-1450.24646	-805.12744	1046.64429	-1335.13855	-590.5777	699.44403	-1599.26208	-565.80133	507.90045	-1577.96667	-655.11603	339.79108	-1568.68457	-693.91644	120.97273	-1540.64172	-719.64618	98.67664	-1481.33179	-562.77808	50.34492	-1583.73926	-684.84448	677.7345	-1219.41992	-696.97516	469.43134	-1270.71436	-745.96643	287.03415	-1271.39148	-768.46655	95.70978	-1317.47717	-804.46606	42.96039	-1373.69385	-616.44568	39.50821	-1306.30542	-740.55811	1806.7157	-1368.58411	-2845.03833	1033.78467	3360.06201	NaN	NaN	NaN
63	0.62	-608.55432	1771.35327	-1449.58508	-618.76447	1746.9679	-1308.60815	-715.97119	1668.073	-1472.96606	-737.11139	1640.36072	-1333.9408	-756.88422	1536.1604	-1395.29358	-810.51447	1262.98242	-1390.23804	-617.06555	1470.08386	-1416.45898	-566.02344	1296.37451	-1405.15332	-807.13141	1366.37451	-1323.96753	-701.00653	1509.00354	-1579.58887	-754.04413	1315.65515	-1655.92517	-781.59296	1177.41968	-1665.35217	-796.60706	1047.2157	-1684.85779	-754.77802	912.45715	-1671.45471	-805.68286	923.896	-1693.84607	-797.79498	857.18945	-1701.0437	-660.11163	1508.53674	-1216.47095	-656.98755	1317.19958	-1126.12903	-621.58551	1174.15979	-1107.91418	-568.23877	1066.15454	-1094.19116	-496.11688	953.75293	-1117.75818	-537.93066	939.70325	-1081.90295	-487.48532	886.76575	-1083.849	-576.18518	1001.16638	-1520.52283	-588.76074	984.6322	-1265.37073	-788.69214	1047.15247	-1451.05261	-797.87793	1046.86462	-1336.13293	-580.28467	699.74695	-1598.36853	-555.64703	506.78906	-1576.06067	-636.83838	333.67505	-1567.94275	-664.65649	113.04155	-1539.91882	-689.79773	90.0424	-1480.84497	-529.68622	48.31853	-1581.27161	-681.72687	677.47443	-1219.56091	-695.00323	469.36072	-1271.01099	-745.12006	287.1983	-1271.64063	-768.41254	95.8708	-1317.75659	-804.38672	43.06944	-1374.03247	-616.55701	39.452	-1306.11279	-731.13306	1807.15979	-1369.10498	-2845.08423	1033.80286	3360.19897	NaN	NaN	NaN
64	0.63	-599.29944	1770.81006	-1450.03931	-609.55121	1746.75342	-1308.73767	-706.91187	1667.74695	-1472.96436	-728.25299	1640.51477	-1333.92273	-748.21033	1535.92224	-1395.05566	-802.24554	1262.82544	-1390.53589	-608.50037	1469.60474	-1415.81616	-557.78558	1295.85852	-1404.06238	-799.01428	1366.38	-1324.03894	-692.13855	1508.4939	-1579.30713	-747.23596	1315.73352	-1655.01306	-776.04065	1177.6604	-1663.80872	-792.93134	1047.63916	-1683.01196	-752.97754	912.44092	-1670.03101	-803.91577	924.61829	-1692.16101	-797.09259	857.63464	-1699.11951	-651.99664	1508.58899	-1216.10522	-646.78333	1317.21826	-1125.2804	-610.57574	1174.44458	-1107.76074	-556.38611	1066.85913	-1094.77942	-482.73456	955.19116	-1118.97925	-524.35492	940.90607	-1083.07092	-473.41516	888.28638	-1085.68054	-567.14899	1000.35962	-1519.8584	-582.30927	983.87311	-1264.53845	-780.35394	1047.02039	-1451.91492	-790.6123	1046.9032	-1337.13623	-570.38043	699.95142	-1597.63562	-545.82758	505.47772	-1574.27869	-618.39325	327.83298	-1566.94507	-635.42242	105.96606	-1539.40527	-660.06158	82.27771	-1480.57324	-496.99368	47.51117	-1579.25806	-678.32764	677.25153	-1219.78223	-692.85797	469.09134	-1271.40564	-744.20306	287.40134	-1271.96655	-768.39142	96.12694	-1318.10938	-804.46771	43.37371	-1374.49963	-616.39539	39.57641	-1305.85681	-721.67255	1807.14172	-1369.49719	-2845.10181	1033.79126	3360.14087	NaN	NaN	NaN
65	0.64	-589.88885	1770.03503	-1450.24902	-600.23834	1746.24719	-1308.78723	-697.797	1667.27698	-1473.05212	-719.37335	1640.42493	-1333.97009	-739.50739	1535.61487	-1395.02124	-794.00922	1262.63086	-1391.02209	-599.79199	1469.03979	-1415.37903	-549.51184	1295.16016	-1403.10449	-790.59174	1366.20215	-1323.84448	-683.28033	1507.88696	-1579.08472	-739.84479	1315.37195	-1654.05603	-770.2804	1177.83887	-1662.37964	-789.07544	1048.12451	-1681.66968	-750.91492	912.19568	-1668.8147	-801.78265	925.19556	-1690.60022	-796.1106	858.00256	-1697.42676	-643.71259	1508.47388	-1215.81934	-638.06378	1317.25879	-1125.42883	-599.24591	1174.43896	-1108.2533	-543.77277	1067.41968	-1094.99023	-469.83054	956.64337	-1120.53491	-510.82281	941.87286	-1084.09802	-459.35654	889.7337	-1087.38831	-558.14172	999.45868	-1519.29785	-575.78107	983.11462	-1263.78394	-771.93134	1046.61584	-1452.79834	-783.29291	1046.74341	-1338.1814	-560.72577	699.61902	-1596.80286	-536.2821	504.0834	-1572.67029	-600.33417	322.56927	-1565.80066	-606.32849	99.79042	-1539.03821	-630.19562	75.22332	-1480.61816	-464.70609	47.7383	-1577.52551	-674.75629	676.97186	-1220.00952	-690.6825	468.96411	-1271.86755	-743.15149	287.59158	-1272.41455	-768.15161	96.23709	-1318.41638	-804.146	43.37046	-1374.81726	-616.40741	39.52787	-1305.61401	-712.18311	1806.95947	-1369.92419	-2845.10254	1033.60669	3360.34448	NaN	NaN	NaN
